<svg xmlns="http://www.w3.org/2000/svg" viewBox="0 0 64 64">
  <defs>
    <linearGradient id="leaf" x1="0" y1="0" x2="0" y2="1">
      <stop offset="0" stop-color="#6ee7b7"/>
      <stop offset="1" stop-color="#22d3ee"/>
    </linearGradient>
    <radialGradient id="glow" cx=".5" cy=".4" r=".6">
      <stop offset="0" stop-color="#6ee7b7" stop-opacity=".45"/>
      <stop offset="1" stop-color="#6ee7b7" stop-opacity="0"/>
    </radialGradient>
  </defs>
  <rect width="64" height="64" rx="14" fill="#0c1c30"/>
  <circle cx="32" cy="26" r="24" fill="url(#glow)"/>
  <path d="M30.4 52c.4-4.8.2-9.8-.8-13.2-1.6-1-4.6-2-8-4.6C17 31.6 15.6 26 16.4 21c3 6.6 7.6 8.4 11 10.4 1 .6 2 1.3 2.8 2.2-.5-3.4-1.5-6.4-3.4-9C24 20.6 22.4 15 24 10c2.4 6.2 6.2 8.6 8.4 13.2 1.2 2.5 1.8 5.6 2 8.8 1-1.6 2.3-2.9 3.8-3.9 3-2 6.8-3.4 9.4-8.6.6 5-1 10-6.6 12.6-2.6 1.2-5.2 1.8-6.6 3-.8 3.2-1 8.6-.6 16.9z" fill="url(#leaf)"/>
</svg>
